HIERARCHY
ROOT newVegas:Hips
{
	OFFSET 0.000000 96.479958 0.000000
	CHANNELS 6 Xposition Yposition Zposition Xrotation Yrotation Zrotation
	JOINT newVegas:Pelvis
	{
		OFFSET 0.000000 0.000000 0.000000
		CHANNELS 3 Xrotation Yrotation Zrotation
		JOINT newVegas:LeftUpLeg
		{
			OFFSET 18.735201 -5.666702 -4.541200
			CHANNELS 3 Xrotation Yrotation Zrotation
			JOINT newVegas:LeftLeg
			{
				OFFSET -0.021200 -31.938179 0.493100
				CHANNELS 3 Xrotation Yrotation Zrotation
				JOINT newVegas:LeftFoot
				{
					OFFSET 0.021200 -31.938179 -4.336299
					CHANNELS 3 Xrotation Yrotation Zrotation
					JOINT newVegas:LeftToeBase
					{
						OFFSET 0.943001 -26.722000 15.023500
						CHANNELS 3 Xrotation Yrotation Zrotation
						End Site
						{
							OFFSET 0.000000 30.670183 0.000000
						}
					}
				}
				JOINT newVegas:Left_PantLeg
				{
					OFFSET 0.663870 -9.044666 -1.108900
					CHANNELS 3 Xrotation Yrotation Zrotation
					End Site
					{
						OFFSET 1.415995 20.635357 0.000000
					}
				}
			}
		}
		JOINT newVegas:RightUpLeg
		{
			OFFSET -18.735201 -5.666702 -4.541200
			CHANNELS 3 Xrotation Yrotation Zrotation
			JOINT newVegas:RightLeg
			{
				OFFSET 0.018946 -31.938133 0.493100
				CHANNELS 3 Xrotation Yrotation Zrotation
				JOINT newVegas:RightFoot
				{
					OFFSET -0.018946 -31.938126 -4.336299
					CHANNELS 3 Xrotation Yrotation Zrotation
					JOINT newVegas:RightToeBase
					{
						OFFSET -0.943001 -26.722004 15.023500
						CHANNELS 3 Xrotation Yrotation Zrotation
						End Site
						{
							OFFSET 0.000000 30.670187 0.000000
						}
					}
				}
				JOINT newVegas:Right_PantLeg
				{
					OFFSET -0.661674 -9.044716 -1.108900
					CHANNELS 3 Xrotation Yrotation Zrotation
					End Site
					{
						OFFSET -1.415958 20.635269 0.000000
					}
				}
			}
		}
	}
	JOINT newVegas:Spine
	{
		OFFSET 0.000000 10.199997 -0.299500
		CHANNELS 3 Xrotation Yrotation Zrotation
		JOINT newVegas:Spine1
		{
			OFFSET 0.000000 11.900002 -1.516600
			CHANNELS 3 Xrotation Yrotation Zrotation
			JOINT newVegas:Spine2
			{
				OFFSET 0.000000 13.600006 -2.842500
				CHANNELS 3 Xrotation Yrotation Zrotation
				JOINT newVegas:Neck
				{
					OFFSET 0.000000 9.624100 -2.890100
					CHANNELS 3 Xrotation Yrotation Zrotation
					JOINT newVegas:Head
					{
						OFFSET 0.000000 14.068802 -1.351900
						CHANNELS 3 Xrotation Yrotation Zrotation
						JOINT newVegas:Hair_Back
						{
							OFFSET 0.000000 3.231903 -17.524799
							CHANNELS 3 Xrotation Yrotation Zrotation
							End Site
							{
								OFFSET 0.000000 19.849884 0.000000
							}
						}
						JOINT newVegas:Hair_Front
						{
							OFFSET 0.000000 31.260406 4.573800
							CHANNELS 3 Xrotation Yrotation Zrotation
							JOINT newVegas:Hair_Front1
							{
								OFFSET 0.000000 2.284103 11.993300
								CHANNELS 3 Xrotation Yrotation Zrotation
								JOINT newVegas:Hair_Front2
								{
									OFFSET 0.000000 2.284103 11.993300
									CHANNELS 3 Xrotation Yrotation Zrotation
									End Site
									{
										OFFSET 0.000000 12.208862 0.000000
									}
								}
							}
						}
						JOINT newVegas:Jowel
						{
							OFFSET 0.000000 -7.458206 6.864100
							CHANNELS 3 Xrotation Yrotation Zrotation
							End Site
							{
								OFFSET 0.000000 19.849884 0.000000
							}
						}
					}
				}
				JOINT newVegas:LeftShoulder
				{
					OFFSET 15.263000 10.923401 -0.547700
					CHANNELS 3 Xrotation Yrotation Zrotation
					JOINT newVegas:LeftArm
					{
						OFFSET 25.438599 -2.830597 -13.032500
						CHANNELS 3 Xrotation Yrotation Zrotation
						JOINT newVegas:LeftForeArm
						{
							OFFSET 29.960503 0.000000 0.000000
							CHANNELS 3 Xrotation Yrotation Zrotation
							JOINT newVegas:LeftHand
							{
								OFFSET 27.849251 0.000000 0.000000
								CHANNELS 3 Xrotation Yrotation Zrotation
								JOINT newVegas:LeftHandThumb1
								{
									OFFSET 4.487587 -3.305161 6.305391
									CHANNELS 3 Xrotation Yrotation Zrotation
									JOINT newVegas:LeftHandThumb2
									{
										OFFSET 5.480453 -3.164139 3.164143
										CHANNELS 3 Xrotation Yrotation Zrotation
										JOINT newVegas:LeftHandThumb3
										{
											OFFSET 5.159721 -2.978973 2.978967
											CHANNELS 3 Xrotation Yrotation Zrotation
											End Site
											{
												OFFSET 2.494507 5.926697 1.738678
											}
										}
									}
								}
								JOINT newVegas:LeftHandIndex1
								{
									OFFSET 18.578728 -0.527832 5.208049
									CHANNELS 3 Xrotation Yrotation Zrotation
									JOINT newVegas:LeftHandIndex2
									{
										OFFSET 3.192009 0.000000 0.000000
										CHANNELS 3 Xrotation Yrotation Zrotation
										JOINT newVegas:LeftHandIndex3
										{
											OFFSET 3.835129 0.000000 0.000000
											CHANNELS 3 Xrotation Yrotation Zrotation
											End Site
											{
												OFFSET -0.034599 3.816971 0.371180
											}
										}
									}
								}
								JOINT newVegas:LeftHandMiddle1
								{
									OFFSET 18.476105 0.000000 0.000000
									CHANNELS 3 Xrotation Yrotation Zrotation
									JOINT newVegas:LeftHandMiddle2
									{
										OFFSET 3.324875 0.000000 0.000000
										CHANNELS 3 Xrotation Yrotation Zrotation
										JOINT newVegas:LeftHandMiddle3
										{
											OFFSET 4.596550 0.000000 0.000000
											CHANNELS 3 Xrotation Yrotation Zrotation
											End Site
											{
												OFFSET 0.057701 4.578827 0.399218
											}
										}
									}
								}
								JOINT newVegas:LeftHandRing1
								{
									OFFSET 17.732719 0.121887 -4.201567
									CHANNELS 3 Xrotation Yrotation Zrotation
									JOINT newVegas:LeftHandRing2
									{
										OFFSET 2.733170 0.000000 0.000000
										CHANNELS 3 Xrotation Yrotation Zrotation
										JOINT newVegas:LeftHandRing3
										{
											OFFSET 3.178268 0.000000 0.000000
											CHANNELS 3 Xrotation Yrotation Zrotation
											End Site
											{
												OFFSET 0.119102 3.170624 0.185394
											}
										}
									}
								}
								JOINT newVegas:LeftHandPinky1
								{
									OFFSET 15.989624 -0.606689 -7.535461
									CHANNELS 3 Xrotation Yrotation Zrotation
									JOINT newVegas:LeftHandPinky2
									{
										OFFSET 2.538986 0.000000 0.000000
										CHANNELS 3 Xrotation Yrotation Zrotation
										JOINT newVegas:LeftHandPinky3
										{
											OFFSET 2.593102 0.000000 0.000000
											CHANNELS 3 Xrotation Yrotation Zrotation
											End Site
											{
												OFFSET -0.150902 2.584198 0.152708
											}
										}
									}
								}
							}
							JOINT newVegas:Left_Sleeve
							{
								OFFSET 0.267448 -0.649796 0.577675
								CHANNELS 3 Xrotation Yrotation Zrotation
								End Site
								{
									OFFSET 0.000000 15.991241 0.000000
								}
							}
							JOINT newVegas:Left_CapeC
							{
								OFFSET 15.715958 -8.608795 -6.935905
								CHANNELS 3 Xrotation Yrotation Zrotation
								JOINT newVegas:Left_CapeC1
								{
									OFFSET 0.000000 -8.688499 0.000000
									CHANNELS 3 Xrotation Yrotation Zrotation
									End Site
									{
										OFFSET 0.000000 8.688499 0.000000
									}
								}
							}
						}
						JOINT newVegas:Left_CapeB
						{
							OFFSET 26.118385 -8.608795 -7.079235
							CHANNELS 3 Xrotation Yrotation Zrotation
							JOINT newVegas:Left_CapeB1
							{
								OFFSET 0.000000 -8.688499 0.000000
								CHANNELS 3 Xrotation Yrotation Zrotation
								End Site
								{
									OFFSET 0.000000 8.688499 0.000000
								}
							}
						}
						JOINT newVegas:Left_CapeA
						{
							OFFSET 5.115639 -8.608795 -10.395809
							CHANNELS 3 Xrotation Yrotation Zrotation
							JOINT newVegas:Left_CapeA1
							{
								OFFSET 0.000000 -8.688499 0.000000
								CHANNELS 3 Xrotation Yrotation Zrotation
								End Site
								{
									OFFSET 0.000000 8.688499 0.000000
								}
							}
						}
					}
				}
				JOINT newVegas:RightShoulder
				{
					OFFSET -15.263000 10.923401 -0.547700
					CHANNELS 3 Xrotation Yrotation Zrotation
					JOINT newVegas:RightArm
					{
						OFFSET -25.438599 -2.830597 -13.032500
						CHANNELS 3 Xrotation Yrotation Zrotation
						JOINT newVegas:RightForeArm
						{
							OFFSET -29.960503 0.000000 0.000000
							CHANNELS 3 Xrotation Yrotation Zrotation
							JOINT newVegas:RightHand
							{
								OFFSET -27.849251 0.000000 0.000000
								CHANNELS 3 Xrotation Yrotation Zrotation
								JOINT newVegas:RightHandThumb1
								{
									OFFSET -4.487587 -3.305161 6.305391
									CHANNELS 3 Xrotation Yrotation Zrotation
									JOINT newVegas:RightHandThumb2
									{
										OFFSET -5.480453 -3.164139 3.164143
										CHANNELS 3 Xrotation Yrotation Zrotation
										JOINT newVegas:RightHandThumb3
										{
											OFFSET -5.159721 -2.978973 2.978967
											CHANNELS 3 Xrotation Yrotation Zrotation
											End Site
											{
												OFFSET -2.494507 5.926697 1.738678
											}
										}
									}
								}
								JOINT newVegas:RightHandIndex1
								{
									OFFSET -18.578728 -0.527832 5.208049
									CHANNELS 3 Xrotation Yrotation Zrotation
									JOINT newVegas:RightHandIndex2
									{
										OFFSET -3.192009 0.000000 0.000000
										CHANNELS 3 Xrotation Yrotation Zrotation
										JOINT newVegas:RightHandIndex3
										{
											OFFSET -3.835129 0.000000 0.000000
											CHANNELS 3 Xrotation Yrotation Zrotation
											End Site
											{
												OFFSET 0.034599 3.816971 0.371180
											}
										}
									}
								}
								JOINT newVegas:RightHandMiddle1
								{
									OFFSET -18.476105 0.000000 0.000000
									CHANNELS 3 Xrotation Yrotation Zrotation
									JOINT newVegas:RightHandMiddle2
									{
										OFFSET -3.324875 0.000000 0.000000
										CHANNELS 3 Xrotation Yrotation Zrotation
										JOINT newVegas:RightHandMiddle3
										{
											OFFSET -4.596550 0.000000 0.000000
											CHANNELS 3 Xrotation Yrotation Zrotation
											End Site
											{
												OFFSET -0.057701 4.578827 0.399218
											}
										}
									}
								}
								JOINT newVegas:RightHandRing1
								{
									OFFSET -17.732719 0.121887 -4.201567
									CHANNELS 3 Xrotation Yrotation Zrotation
									JOINT newVegas:RightHandRing2
									{
										OFFSET -2.733170 0.000000 0.000000
										CHANNELS 3 Xrotation Yrotation Zrotation
										JOINT newVegas:RightHandRing3
										{
											OFFSET -3.178268 0.000000 0.000000
											CHANNELS 3 Xrotation Yrotation Zrotation
											End Site
											{
												OFFSET -0.119102 3.170624 0.185394
											}
										}
									}
								}
								JOINT newVegas:RightHandPinky1
								{
									OFFSET -15.989624 -0.606689 -7.535461
									CHANNELS 3 Xrotation Yrotation Zrotation
									JOINT newVegas:RightHandPinky2
									{
										OFFSET -2.538986 0.000000 0.000000
										CHANNELS 3 Xrotation Yrotation Zrotation
										JOINT newVegas:RightHandPinky3
										{
											OFFSET -2.593102 0.000000 0.000000
											CHANNELS 3 Xrotation Yrotation Zrotation
											End Site
											{
												OFFSET 0.150902 2.584198 0.152708
											}
										}
									}
								}
							}
							JOINT newVegas:Right_CapeC
							{
								OFFSET -15.715958 -8.608795 -6.935905
								CHANNELS 3 Xrotation Yrotation Zrotation
								JOINT newVegas:Right_CapeC1
								{
									OFFSET 0.000000 -8.688499 0.000000
									CHANNELS 3 Xrotation Yrotation Zrotation
									End Site
									{
										OFFSET 0.000000 8.688499 0.000000
									}
								}
							}
							JOINT newVegas:Right_Sleeve
							{
								OFFSET -0.267448 -0.649994 0.577675
								CHANNELS 3 Xrotation Yrotation Zrotation
								End Site
								{
									OFFSET 0.000000 15.991302 0.000000
								}
							}
						}
						JOINT newVegas:Right_CapeA
						{
							OFFSET -5.115540 -8.608795 -10.395824
							CHANNELS 3 Xrotation Yrotation Zrotation
							JOINT newVegas:Right_CapeA1
							{
								OFFSET 0.000000 -8.688499 0.000000
								CHANNELS 3 Xrotation Yrotation Zrotation
								End Site
								{
									OFFSET 0.000000 8.688499 0.000000
								}
							}
						}
						JOINT newVegas:Right_CapeB
						{
							OFFSET -26.118187 -8.608795 -7.079266
							CHANNELS 3 Xrotation Yrotation Zrotation
							JOINT newVegas:Right_CapeB1
							{
								OFFSET 0.000000 -8.688499 0.000000
								CHANNELS 3 Xrotation Yrotation Zrotation
								End Site
								{
									OFFSET 0.000000 8.688499 0.000000
								}
							}
						}
					}
				}
				JOINT newVegas:Left_Collar
				{
					OFFSET 18.625099 8.655502 8.828100
					CHANNELS 3 Xrotation Yrotation Zrotation
					JOINT newVegas:Left_Collar1
					{
						OFFSET 14.783401 10.540405 -1.259500
						CHANNELS 3 Xrotation Yrotation Zrotation
						End Site
						{
							OFFSET 0.000000 18.199875 0.000000
						}
					}
				}
				JOINT newVegas:Collar_Back
				{
					OFFSET 0.000000 15.630707 -20.132601
					CHANNELS 3 Xrotation Yrotation Zrotation
					End Site
					{
						OFFSET 0.000000 22.523010 0.000000
					}
				}
				JOINT newVegas:Left_Peck
				{
					OFFSET 17.239599 -5.132599 25.482599
					CHANNELS 3 Xrotation Yrotation Zrotation
					End Site
					{
						OFFSET 0.000000 22.523010 0.000000
					}
				}
				JOINT newVegas:Right_Peck
				{
					OFFSET -17.239599 -5.132202 25.482599
					CHANNELS 3 Xrotation Yrotation Zrotation
					End Site
					{
						OFFSET 0.000000 22.523010 0.000000
					}
				}
				JOINT newVegas:Right_Collar
				{
					OFFSET -18.625099 8.655792 8.828100
					CHANNELS 3 Xrotation Yrotation Zrotation
					JOINT newVegas:Right_Collar1
					{
						OFFSET -14.783401 10.539993 -1.259500
						CHANNELS 3 Xrotation Yrotation Zrotation
						End Site
						{
							OFFSET 0.000000 18.199631 0.000000
						}
					}
				}
			}
		}
		JOINT newVegas:Belly
		{
			OFFSET 0.000000 -6.540398 9.014299
			CHANNELS 3 Xrotation Yrotation Zrotation
			End Site
			{
				OFFSET 0.000000 11.566666 0.000000
			}
		}
	}
	JOINT newVegas:ElvisFacialAnim_Joint
	{
		OFFSET 1.000000 -95.330101 -8.825800
		CHANNELS 3 Xrotation Yrotation Zrotation
		End Site
		{
			OFFSET 0.000000 35.315800 0.000000
		}
	}
}
MOTION
Frames: 4
Frame Time: 0.016667
-23.015858 78.858658 -7.692036 35.987037 4.132629 -4.023783 -0.000002 0.000000 0.000000 -60.664251 -24.120955 28.703279 36.186564 7.634615 -3.633501 3.040659 8.287433 -32.525648 -0.000000 -0.000002 0.000000 -0.000000 0.000000 0.000000 -66.919639 2.958710 -22.206547 56.836869 -3.580570 -0.676618 -19.620810 -5.866719 23.354807 -0.000000 0.000000 -0.000000 -0.000001 0.000000 -0.000001 11.163860 2.019195 0.891280 9.606817 1.909023 0.899772 9.603347 2.011869 0.811203 0.129797 -0.854768 -0.412965 0.129781 -0.854768 -0.412967 0.000001 0.000000 0.000000 0.129779 -0.854764 -0.412964 0.129796 -0.854778 -0.412966 -0.000000 -0.000000 0.000000 0.000001 0.000000 0.000000 1.414462 -22.723534 -8.784363 11.762078 -10.125566 -53.585375 0.000026 -69.152237 -0.000008 9.634485 -7.078027 51.536472 -3.236109 1.418145 8.402898 5.654939 12.269288 1.647809 0.000002 -0.000003 -0.000001 -2.869246 -11.236246 -14.304763 0.189432 1.607170 -13.444121 -0.000002 0.000001 0.000001 -1.015603 -2.322589 -17.138019 0.372015 2.236741 -18.883764 0.000004 0.000002 -0.000000 0.425069 2.386050 -20.199033 0.525202 2.642134 -22.481667 0.000001 0.000003 0.000001 2.908287 9.324885 -19.277241 0.542578 -1.387854 -23.214305 0.000002 0.000002 -0.000001 0.000001 0.000001 0.000000 0.000001 0.000001 0.000000 -0.000000 0.000001 0.000000 0.000002 -0.000001 -0.000001 0.000002 -0.000002 -0.000003 0.000002 -0.000001 -0.000001 0.000001 0.000000 -0.000002 3.076672 26.719379 7.630342 -0.858346 44.777890 17.984942 0.000003 15.067928 0.000007 -12.088589 -18.720860 2.445785 11.401668 -6.367864 -1.590888 -8.836373 -28.068806 -6.744432 -0.000000 0.000001 -0.000000 1.584805 -10.189937 8.836258 0.110134 -1.235152 10.190461 -0.000003 0.000001 0.000002 0.067148 -0.965871 7.951952 0.067133 -0.965885 7.951938 0.000000 -0.000000 -0.000001 -0.761385 3.643579 10.438911 0.104645 -1.204187 9.932231 -0.000002 0.000003 -0.000002 -2.759442 8.024678 17.655262 0.308100 -2.050678 17.086505 -0.000001 0.000001 0.000005 0.000000 0.000000 -0.000000 0.000000 0.000000 0.000000 0.000000 0.000000 -0.000000 -0.000000 0.000000 0.000000 -0.000000 0.000000 0.000000 -0.000000 0.000000 0.000000 -0.000000 -0.000000 0.000000 -0.000002 0.000000 -0.000000 -0.000002 0.000000 -0.000000 -0.000002 0.000000 -0.000000 -0.000002 0.000000 -0.000000 -0.000002 0.000000 -0.000000 -0.000002 0.000000 -0.000000 -0.000002 0.000000 -0.000000 0.000002 0.000000 -0.000000 -0.000002 0.000000 0.000000 
-22.615955 78.318130 -7.819344 37.451146 4.014421 -3.922267 0.000002 0.000000 -0.000000 -64.099304 -23.325929 28.289448 38.402882 7.691553 -3.740297 2.231032 6.966760 -32.025678 0.000000 -0.000001 0.000000 -0.000001 0.000001 0.000002 -68.977534 3.432681 -22.623832 57.573249 -3.284610 -0.987478 -19.649194 -6.001136 23.879067 0.000000 -0.000000 -0.000000 0.000002 0.000001 -0.000000 11.353368 2.156179 0.899732 9.817437 2.025247 0.983092 9.811144 2.152150 0.886992 0.056618 -0.898969 -0.484058 0.056595 -0.898969 -0.484058 -0.000000 0.000000 0.000000 0.056709 -0.898967 -0.484055 0.056525 -0.898989 -0.484055 0.000001 -0.000000 0.000000 -0.000000 0.000000 -0.000000 1.416203 -22.973077 -8.880211 11.192770 -9.120340 -53.018766 0.000009 -70.505843 -0.000018 10.038161 -7.077205 52.367122 -3.374858 1.231298 8.584192 5.793785 12.624828 1.716457 0.000003 -0.000002 -0.000005 -2.849380 -11.834720 -13.679892 0.167878 1.514192 -12.652659 -0.000002 -0.000000 0.000002 -1.107515 -2.724914 -16.827237 0.358604 2.197114 -18.536782 0.000001 0.000000 -0.000000 0.422364 2.378700 -20.134018 0.523072 2.637000 -22.435577 0.000001 0.000001 0.000001 2.892617 9.303089 -19.220769 0.541226 -1.391039 -23.185728 -0.000003 0.000000 -0.000001 0.000002 0.000000 -0.000000 0.000002 0.000000 -0.000000 0.000001 0.000000 -0.000000 0.000003 0.000001 -0.000001 0.000003 -0.000000 -0.000005 0.000003 0.000001 -0.000001 0.000004 0.000002 -0.000002 3.187581 27.214293 7.729331 -2.835466 44.048409 16.782885 0.000001 15.523328 -0.000004 -11.553906 -18.245694 1.205170 11.420386 -6.347027 -1.613740 -8.885718 -28.126215 -6.728596 0.000001 -0.000002 -0.000001 1.580416 -10.229633 8.766658 0.108812 -1.227723 10.128405 0.000001 -0.000000 -0.000002 0.064978 -0.950256 7.822439 0.064962 -0.950259 7.822422 -0.000001 -0.000000 0.000001 -0.755250 3.690489 10.276195 0.101181 -1.184329 9.766746 0.000000 0.000001 -0.000001 -2.755521 8.099313 17.520902 0.303162 -2.034570 16.948054 0.000001 0.000003 0.000005 0.000000 0.000000 -0.000000 0.000000 0.000000 0.000000 0.000000 0.000000 -0.000000 0.000000 -0.000001 -0.000000 0.000000 -0.000001 -0.000000 0.000000 -0.000001 -0.000000 0.000000 -0.000001 -0.000000 -0.000001 -0.000000 -0.000000 -0.000001 -0.000000 -0.000000 -0.000001 -0.000000 -0.000000 -0.000001 -0.000000 -0.000000 -0.000001 -0.000000 -0.000000 -0.000001 -0.000000 -0.000000 -0.000001 -0.000000 -0.000000 -0.000000 0.000000 -0.000000 0.000002 0.000000 -0.000000 
-22.197609 77.818520 -7.897572 39.059659 4.129767 -3.707553 0.000004 0.000000 -0.000000 -67.528544 -22.381345 27.728579 40.002669 7.755123 -3.872522 1.830078 5.441438 -31.426216 0.000000 0.000003 -0.000000 -0.000000 0.000001 -0.000000 -71.066800 3.923283 -23.399579 58.335450 -2.901401 -1.198174 -19.778467 -6.144997 24.362508 -0.000000 -0.000000 0.000000 0.000003 0.000000 -0.000002 11.442868 2.272100 0.886484 9.969258 2.124028 1.135354 9.956451 2.298936 1.031304 0.014117 -0.967779 -0.523843 0.014136 -0.967776 -0.523844 0.000000 0.000000 -0.000000 0.014107 -0.967776 -0.523843 0.014199 -0.967780 -0.523840 0.000001 -0.000000 0.000000 0.000000 0.000000 -0.000000 1.450523 -23.720940 -8.828589 11.826657 -9.065751 -52.805599 0.000036 -71.719896 0.000023 10.805690 -6.917956 53.874930 -3.512162 1.046277 8.763083 5.931028 12.976939 1.783622 -0.000001 0.000000 0.000001 -2.817135 -12.428225 -13.059480 0.147814 1.421872 -11.869164 -0.000003 -0.000000 0.000000 -1.194127 -3.124446 -16.519639 0.345534 2.157819 -18.193266 0.000001 -0.000000 -0.000001 0.419700 2.371424 -20.069654 0.520986 2.631923 -22.389959 -0.000001 -0.000001 -0.000001 2.877114 9.281334 -19.164898 0.539875 -1.394165 -23.157403 -0.000004 0.000005 -0.000000 0.000001 0.000000 0.000001 0.000001 0.000000 0.000001 0.000000 -0.000000 0.000001 0.000001 -0.000002 -0.000001 0.000001 -0.000003 -0.000004 0.000001 -0.000002 -0.000001 0.000000 -0.000001 -0.000002 3.294673 27.536633 7.886915 -5.270288 43.242887 15.996358 0.000000 15.853533 0.000007 -11.364534 -17.432028 -0.170966 11.427817 -6.338766 -1.622791 -8.905268 -28.148960 -6.722346 0.000001 -0.000000 -0.000001 1.578678 -10.245334 8.739119 0.108266 -1.224773 10.103821 0.000000 0.000000 -0.000002 0.064142 -0.944068 7.771178 0.064124 -0.944072 7.771194 -0.000002 0.000001 -0.000003 -0.752773 3.709053 10.211782 0.099844 -1.176456 9.701240 -0.000001 -0.000003 0.000002 -2.753886 8.128865 17.467717 0.301214 -2.028178 16.893255 -0.000000 0.000005 -0.000002 -0.000001 -0.000000 -0.000000 -0.000001 -0.000001 -0.000000 -0.000001 -0.000000 -0.000000 0.000000 0.000001 -0.000000 0.000000 0.000002 -0.000000 0.000000 0.000001 -0.000000 0.000000 0.000002 -0.000000 -0.000000 0.000000 -0.000000 -0.000000 0.000000 -0.000000 -0.000000 0.000000 -0.000000 -0.000000 0.000000 -0.000000 -0.000000 0.000000 -0.000000 -0.000000 0.000000 -0.000000 -0.000000 0.000000 -0.000000 0.000002 -0.000000 -0.000000 0.000004 0.000000 -0.000000 
-21.733843 77.299431 -7.951580 40.689069 4.372059 -3.469048 0.000001 -0.000000 0.000000 -71.048898 -21.179513 27.035673 41.566421 7.847678 -3.873221 1.382929 3.825950 -30.751339 0.000000 -0.000001 0.000000 -0.000000 -0.000000 -0.000003 -73.144257 4.409972 -24.390175 59.171896 -2.422686 -1.377479 -19.988265 -6.312321 24.855277 0.000000 -0.000000 -0.000000 0.000000 -0.000000 -0.000001 11.488334 2.337478 0.897936 10.064951 2.170636 1.237803 10.048252 2.372606 1.130299 -0.002118 -1.011950 -0.591437 -0.002090 -1.011947 -0.591437 0.000000 0.000000 0.000000 -0.002059 -1.011967 -0.591431 -0.002076 -1.011937 -0.591436 0.000000 0.000000 -0.000000 0.000000 0.000000 0.000000 1.473614 -24.423863 -8.886955 12.773713 -9.396231 -52.694162 0.000024 -72.757477 0.000001 11.913181 -6.670312 56.008012 -3.647177 0.864216 8.938392 6.065768 13.323436 1.848959 -0.000000 -0.000001 -0.000001 -2.773156 -13.012707 -12.447484 0.129294 1.330797 -11.098647 0.000001 -0.000002 0.000000 -1.275086 -3.518483 -16.217280 0.332927 2.119108 -17.855385 0.000003 -0.000001 0.000000 0.417085 2.364258 -20.006351 0.518931 2.626929 -22.345078 0.000000 -0.000001 0.000002 2.861843 9.259783 -19.109968 0.538545 -1.397255 -23.129543 -0.000001 -0.000002 -0.000002 0.000000 -0.000000 -0.000000 0.000000 -0.000000 -0.000000 -0.000000 -0.000000 0.000000 0.000002 0.000000 0.000002 0.000003 -0.000000 -0.000003 0.000002 0.000000 0.000002 0.000002 0.000001 0.000001 3.339809 27.785957 7.894899 -7.494336 42.669015 15.410828 -0.000010 16.135774 -0.000004 -11.314874 -17.019368 -1.634180 11.432224 -6.333872 -1.628211 -8.916914 -28.162518 -6.718621 0.000001 0.000001 -0.000004 1.577602 -10.254724 8.722656 0.107961 -1.223007 10.089146 0.000002 0.000000 -0.000002 0.063621 -0.940392 7.740548 0.063614 -0.940359 7.740571 0.000001 0.000001 -0.000003 -0.751275 3.720133 10.173305 0.099042 -1.171771 9.662123 -0.000000 0.000001 -0.000003 -2.752871 8.146504 17.435946 0.300058 -2.024370 16.860522 0.000002 -0.000000 -0.000001 -0.000001 -0.000000 0.000000 -0.000001 -0.000001 -0.000000 -0.000001 -0.000000 0.000000 -0.000000 0.000000 -0.000000 -0.000000 0.000000 -0.000000 -0.000000 0.000000 -0.000000 -0.000000 -0.000000 0.000000 -0.000001 0.000001 -0.000000 -0.000001 0.000001 -0.000000 -0.000001 0.000001 -0.000000 -0.000001 0.000001 -0.000000 -0.000001 0.000001 -0.000000 -0.000001 0.000001 -0.000000 -0.000001 0.000001 -0.000000 0.000003 0.000000 -0.000000 0.000001 -0.000000 0.000000 
